<svg xmlns="http://www.w3.org/2000/svg" xmlns:xlink="http://www.w3.org/1999/xlink" width="500" zoomAndPan="magnify" viewBox="0 0 375 374.999991" height="500" preserveAspectRatio="xMidYMid meet" version="1.0"><defs><g/><clipPath id="21133a1601"><path d="M 17.25 0 L 357.75 0 C 362.324219 0 366.710938 1.816406 369.949219 5.050781 C 373.183594 8.289062 375 12.675781 375 17.25 L 375 357.75 C 375 362.324219 373.183594 366.710938 369.949219 369.949219 C 366.710938 373.183594 362.324219 375 357.75 375 L 17.25 375 C 12.675781 375 8.289062 373.183594 5.050781 369.949219 C 1.816406 366.710938 0 362.324219 0 357.75 L 0 17.25 C 0 7.722656 7.722656 0 17.25 0 Z M 17.25 0 " clip-rule="nonzero"/></clipPath></defs><g clip-path="url(#21133a1601)"><rect x="-37.5" width="450" fill="#0f172a" y="-37.499999" height="449.999989" fill-opacity="1"/></g><g fill="#b4dbdc" fill-opacity="1"><g transform="translate(94.98697, 282.499963)"><g><path d="M 1.703125 0.84375 C 0.00390625 0.84375 -1.269531 0.234375 -2.125 -0.984375 C -2.976562 -2.210938 -3.40625 -3.679688 -3.40625 -5.390625 C -3.207031 -8.222656 -2.632812 -9.921875 -1.6875 -10.484375 C -0.75 -11.046875 0.378906 -11.328125 1.703125 -11.328125 C 3.023438 -11.328125 3.875 -11.328125 4.25 -11.328125 C 9.914062 -11.328125 14.070312 -12.789062 16.71875 -15.71875 C 19.363281 -18.644531 21.488281 -21.953125 23.09375 -25.640625 C 24.695312 -29.328125 25.78125 -31.832031 26.34375 -33.15625 L 75.9375 -150.453125 C 77.0625 -153.285156 77.625 -155.550781 77.625 -157.25 C 77.625 -160.644531 76.300781 -163.097656 73.65625 -164.609375 C 71.019531 -166.117188 67.335938 -167.347656 62.609375 -168.296875 C 59.398438 -168.859375 57.414062 -169.421875 56.65625 -169.984375 C 55.90625 -170.554688 55.53125 -172.164062 55.53125 -174.8125 C 55.53125 -177.082031 56.144531 -178.59375 57.375 -179.34375 C 58.601562 -180.101562 60.539062 -180.484375 63.1875 -180.484375 C 72.625 -180.484375 80.128906 -179.773438 85.703125 -178.359375 C 91.273438 -176.941406 96.140625 -174.109375 100.296875 -169.859375 C 104.453125 -165.609375 108.328125 -159.140625 111.921875 -150.453125 L 159.515625 -33.15625 C 162.347656 -25.976562 165.085938 -20.59375 167.734375 -17 C 170.378906 -13.40625 174.34375 -11.515625 179.625 -11.328125 L 181.328125 -11.328125 C 183.210938 -11.328125 184.535156 -10.992188 185.296875 -10.328125 C 186.054688 -9.671875 186.53125 -8.023438 186.71875 -5.390625 C 186.71875 -3.679688 186.289062 -2.210938 185.4375 -0.984375 C 184.582031 0.234375 183.304688 0.84375 181.609375 0.84375 C 169.523438 0.28125 159.140625 0 150.453125 0 C 139.117188 0 127.40625 0.28125 115.3125 0.84375 C 113.613281 0.84375 112.335938 0.234375 111.484375 -0.984375 C 110.640625 -2.210938 110.21875 -3.679688 110.21875 -5.390625 C 110.40625 -8.023438 110.875 -9.671875 111.625 -10.328125 C 112.382812 -10.992188 113.707031 -11.328125 115.59375 -11.328125 C 122.019531 -11.328125 126.554688 -11.941406 129.203125 -13.171875 C 131.847656 -14.398438 133.171875 -16.617188 133.171875 -19.828125 C 133.171875 -22.285156 132.035156 -26.726562 129.765625 -33.15625 L 120.125 -56.671875 L 50.15625 -56.671875 C 45.425781 -44.953125 42.726562 -38.148438 42.0625 -36.265625 C 41.40625 -34.378906 41.078125 -33.34375 41.078125 -33.15625 C 38.816406 -25.976562 37.6875 -21.347656 37.6875 -19.265625 C 37.6875 -16.054688 39.101562 -13.929688 41.9375 -12.890625 C 44.769531 -11.847656 50.148438 -11.328125 58.078125 -11.328125 L 59.78125 -11.328125 C 61.664062 -11.328125 62.984375 -10.992188 63.734375 -10.328125 C 64.492188 -9.671875 64.972656 -8.023438 65.171875 -5.390625 C 65.171875 -3.679688 64.742188 -2.210938 63.890625 -0.984375 C 63.035156 0.234375 61.757812 0.84375 60.0625 0.84375 C 47.976562 0.28125 37.6875 0 29.1875 0 C 23.132812 0 13.972656 0.28125 1.703125 0.84375 Z M 55.53125 -68.84375 L 115.03125 -68.84375 L 86.421875 -141.65625 L 85.5625 -141.65625 Z M 55.53125 -68.84375 "/></g></g></g></svg>